<?xml version="1.0" encoding="utf-8"?>
<!-- Generator: Adobe Illustrator 16.0.0, SVG Export Plug-In . SVG Version: 6.00 Build 0)  -->
<!DOCTYPE svg PUBLIC "-//W3C//DTD SVG 1.1//EN" "http://www.w3.org/Graphics/SVG/1.1/DTD/svg11.dtd">
<svg version="1.1" id="Layer_1" xmlns="http://www.w3.org/2000/svg" xmlns:xlink="http://www.w3.org/1999/xlink" x="0px" y="0px"
	 width="665.484px" height="232.396px" viewBox="0 0 665.484 232.396" enable-background="new 0 0 665.484 232.396"
	 xml:space="preserve">
<g id="Shape_3_2_">
	<g>
		<path fill="#FF768F" d="M172.083,119.735c-0.273-1.925-0.705-3.849-1.292-5.772c-0.589-1.924-1.379-3.801-2.37-5.633
			c-1.985-3.662-4.463-6.819-7.434-9.474c-1.621-1.279-3.197-2.469-4.727-3.565c-0.81-0.456-1.643-0.912-2.497-1.37
			c-0.856-0.456-1.733-0.866-2.632-1.232c-3.328-1.458-6.881-2.461-10.656-3.004c-2.609-0.27-5.125-0.401-7.552-0.396
			c1.435-1.011,2.849-2.068,4.241-3.172c1.391-1.103,2.848-2.251,4.375-3.446c1.166-0.918,2.31-1.813,3.434-2.688
			c1.121-0.872,2.265-1.813,3.432-2.825c1.077-1.01,2.175-1.999,3.298-2.963c1.121-0.965,2.222-1.951,3.298-2.964
			c2.241-2.112,4.395-4.247,6.459-6.406c2.062-2.157,4.08-4.522,6.054-7.095c1.883-2.479,3.675-5.185,5.378-8.123
			c1.611-2.937,2.953-6.146,4.025-9.634c0.536-1.741,0.938-3.667,1.203-5.777c-0.001-0.183,0.02-0.413,0.065-0.688
			c0.044-0.274,0.066-0.502,0.065-0.688l-0.002-1.375c0-0.09,0.021-0.159,0.066-0.206c0.045-0.045,0.068-0.114,0.067-0.206
			c-0.002-1.283-0.23-2.84-0.683-4.674c-0.184-0.915-0.455-1.694-0.814-2.336c-0.271-0.915-0.677-1.694-1.217-2.336
			c-0.812-1.463-1.85-2.699-3.109-3.706c-1.17-1.005-2.295-1.828-3.375-2.469c-0.54-0.364-1.08-0.661-1.619-0.89
			c-0.54-0.228-1.08-0.433-1.619-0.616c-0.991-0.455-1.957-0.797-2.901-1.025c-0.944-0.226-1.911-0.43-2.899-0.613
			c-0.9-0.181-1.777-0.316-2.631-0.407c-0.855-0.088-1.731-0.134-2.629-0.132c-3.327-0.269-6.519-0.262-9.572,0.02
			c-3.057,0.099-6.066,0.38-9.032,0.843c-1.529,0.188-3.012,0.397-4.448,0.628c-1.438,0.232-2.877,0.487-4.312,0.765l-4.448,0.834
			l-4.178,0.972c-0.72,0.186-1.438,0.347-2.156,0.485c-0.72,0.139-1.438,0.302-2.156,0.485l-4.178,0.971l-10.241,2.771l2.414-6.743
			c-0.001-0.183,0.02-0.32,0.066-0.412c0.043-0.091,0.066-0.229,0.066-0.413c0.713-2.566,0.395-5.064-0.959-7.492
			c-1.353-2.425-3.334-4.002-5.941-4.731c-2.609-0.728-5.08-0.402-7.414,0.977c-2.335,1.38-3.858,3.4-4.572,6.06l-5.221,19.399
			l-1.213,0.415C72,29.505,66.611,31.44,61.221,33.467c-2.605,1.015-5.254,2.028-7.948,3.041c-2.694,1.016-5.345,2.028-7.949,3.041
			c-2.606,1.105-5.233,2.189-7.882,3.248c-2.649,1.06-5.276,2.188-7.881,3.385l-7.812,3.453c-0.629,0.368-1.259,0.689-1.886,0.966
			c-0.63,0.276-1.304,0.553-2.021,0.829l-3.771,1.933c-0.99,0.462-1.73,1.196-2.221,2.205c-0.493,1.011-0.603,2.111-0.33,3.301
			c0.359,1.284,1.082,2.245,2.162,2.884c1.08,0.64,2.247,0.775,3.506,0.405l8.221-2.217l8.085-2.354l16.306-4.433l16.171-4.57
			c1.257-0.277,2.537-0.576,3.841-0.901c1.301-0.323,2.581-0.669,3.84-1.039L38.049,182.158c-0.447,1.834,0.186,3.07,1.895,3.709
			c0.72,0.363,1.461,0.341,2.225-0.073c0.762-0.414,1.279-0.989,1.547-1.722L92.922,41.516l5.525-1.248
			c5.391-1.387,10.781-2.635,16.172-3.746l4.043-0.833l3.908-0.833l4.044-0.695c0.718-0.184,1.392-0.323,2.021-0.416
			c0.628-0.092,1.302-0.186,2.022-0.279c1.348-0.186,2.695-0.371,4.043-0.559c1.348-0.186,2.65-0.37,3.909-0.558
			c1.348-0.186,2.673-0.325,3.977-0.421c1.302-0.093,2.583-0.188,3.843-0.282c0.627-0.002,1.234-0.024,1.819-0.073
			c0.583-0.046,1.19-0.07,1.82-0.072c0.628-0.001,1.234,0.021,1.819,0.065c0.584,0.046,1.191,0.066,1.821,0.065l3.102,0.406
			c0.448,0.091,0.877,0.183,1.281,0.272c0.405,0.091,0.742,0.183,1.012,0.272l-0.265,2.476c-0.447,2.201-1.117,4.312-2.01,6.329
			c-0.449,1.102-0.939,2.227-1.477,3.372c-0.537,1.148-1.121,2.271-1.746,3.373c-0.719,1.102-1.412,2.203-2.084,3.304
			c-0.672,1.102-1.367,2.203-2.084,3.305c-0.718,1.102-1.479,2.203-2.285,3.305l-2.42,3.305l-5.246,6.336l-5.651,6.199
			c-3.768,4.043-7.805,7.901-12.112,11.575l-3.096,2.894l-3.23,2.619l-4.711,3.723c-2.876,1.381-5.658,2.946-8.352,4.692
			c-0.719,0.461-1.369,0.92-1.951,1.379c-0.586,0.461-1.235,0.92-1.953,1.379l-0.941,0.827l-0.943,0.689l-1.749,1.653
			c-1.169,0.552-1.931,1.426-2.287,2.617c-0.358,1.193-0.265,2.386,0.276,3.574c0.542,1.191,1.396,1.991,2.566,2.401
			c1.168,0.41,2.337,0.339,3.506-0.213l0.673-0.414l2.021-0.555l2.021-0.691l4.043-1.245l7.815-2.216
			c2.604-0.556,5.188-0.995,7.75-1.322c2.562-0.325,5.1-0.491,7.616-0.497c1.258-0.002,2.473,0.064,3.642,0.199
			c1.167,0.136,2.292,0.294,3.372,0.475c1.167,0.183,2.293,0.432,3.371,0.749c1.08,0.32,2.113,0.707,3.104,1.163
			c0.449,0.184,0.898,0.39,1.35,0.616c0.449,0.229,0.898,0.479,1.35,0.753c0.449,0.274,0.854,0.549,1.215,0.823
			c0.359,0.274,0.764,0.596,1.216,0.96c0.72,0.733,1.372,1.441,1.959,2.127c0.585,0.687,1.103,1.489,1.556,2.403
			c0.99,1.648,1.668,3.481,2.033,5.496c0.181,1.01,0.294,2.062,0.343,3.162c0.046,1.101-0.019,2.2-0.196,3.301
			c-0.266,2.11-0.756,4.449-1.469,7.016c-0.449,1.193-0.896,2.363-1.342,3.51c-0.449,1.147-0.986,2.317-1.611,3.509
			c-2.239,4.497-5.197,8.903-8.873,13.219c-3.678,4.317-7.58,8.311-11.707,11.987c-4.219,3.674-8.705,7.167-13.463,10.478
			c-4.577,3.217-9.472,6.297-14.678,9.242c-5.029,2.76-10.148,5.383-15.355,7.869c-2.605,1.287-5.254,2.507-7.947,3.659
			c-2.695,1.15-5.389,2.28-8.084,3.386c-5.389,2.211-10.824,4.261-16.302,6.151c-5.479,1.889-11.049,3.666-16.708,5.328
			c-5.66,1.752-11.299,3.344-16.912,4.777c-5.615,1.432-11.299,2.795-17.048,4.092c-1.259,0.185-2.223,0.829-2.896,1.931
			c-0.672,1.102-0.871,2.292-0.6,3.576c0.272,1.282,0.949,2.267,2.028,2.952c1.08,0.686,2.247,0.89,3.507,0.611
			c5.84-1.296,11.635-2.636,17.385-4.022c5.749-1.387,11.5-2.865,17.25-4.435c5.748-1.571,11.454-3.255,17.113-5.054
			s11.318-3.759,16.977-5.878c2.874-1.016,5.68-2.074,8.421-3.18c2.739-1.105,5.501-2.259,8.285-3.454
			c2.782-1.291,5.544-2.556,8.284-3.799c2.738-1.243,5.456-2.555,8.15-3.935c2.693-1.381,5.387-2.809,8.081-4.279
			c2.693-1.473,5.341-2.991,7.946-4.554c2.603-1.565,5.161-3.221,7.676-4.966c2.512-1.747,5.025-3.54,7.539-5.378
			c2.512-1.93,4.936-3.929,7.27-5.996c2.332-2.067,4.62-4.296,6.863-6.683c2.152-2.114,4.306-4.547,6.457-7.301
			c0.986-1.285,1.95-2.617,2.892-3.994c0.94-1.377,1.815-2.799,2.621-4.268c0.895-1.467,1.7-2.981,2.418-4.543
			c0.716-1.559,1.431-3.165,2.147-4.816c0.625-1.651,1.161-3.348,1.608-5.092c0.445-1.741,0.802-3.529,1.068-5.364
			C172.637,127.619,172.629,123.77,172.083,119.735z M159.238,31.345l0,0.273c0,0,0,0,0,0.001v0.138l0-0.139
			C159.056,31.255,159.056,31.162,159.238,31.345z M644.982,71.03l-15.238,0.031l0.007,3.556l6.041-0.012l0.039,20.597l3.112-0.006
			l-0.04-20.598l6.086-0.012L644.982,71.03z M665.438,70.989l-4.485,0.009l-4.48,19.303h-0.115l-4.678-19.284l-4.592,0.01
			l0.047,24.153l2.859-0.006l-0.039-20.597l0.091-0.001l4.971,20.587l2.8-0.005l4.678-20.281h0.092l0.039,20.271l2.859-0.006
			L665.438,70.989z M626.828,109.606c-1.26-0.272-2.427-0.063-3.504,0.626s-1.75,1.678-2.017,2.961c0,0.092-0.046,0.185-0.135,0.275
			l0.001,0.137l-0.134,0.551l-0.403,0.826l-0.806,1.926l-1.746,3.441c-0.986,1.928-2.196,3.718-3.63,5.37
			c-1.436,1.653-2.938,3.1-4.508,4.341c-1.571,1.24-3.12,2.206-4.646,2.896c-1.527,0.691-2.875,1.037-4.042,1.04
			c-0.271,0-0.495,0.093-0.674,0.276c-0.001-0.275,0.043-0.503,0.133-0.688c0-0.457,0.134-0.962,0.402-1.513
			c0.178-0.733,0.355-1.283,0.536-1.651c0.088-0.365,0.312-0.916,0.671-1.651c0.536-1.376,1.118-2.522,1.746-3.441
			c1.253-2.478,2.641-4.681,4.167-6.608c0.356-0.458,0.716-0.964,1.075-1.515c0.357-0.551,0.761-1.055,1.211-1.516l0.134-0.138
			h0.136l0.134-0.138h-0.135c0.179-0.365,0.538-0.826,1.076-1.377c0.179-0.184,0.357-0.413,0.538-0.688
			c0.179-0.275,0.626-1.009,1.344-2.203c0.537-1.466,0.689-2.979,0.463-4.538c-0.228-1.558-0.882-2.977-1.963-4.26
			c-1.533-1.829-3.49-2.833-5.871-3.013c-2.383-0.178-4.471,0.514-6.266,2.075l-0.134,0.138h-0.135l-0.673,0.689l-0.942,0.827
			l-1.615,1.653l-3.364,3.307c-1.076,1.102-2.132,2.228-3.162,3.375c-1.031,1.149-2.085,2.32-3.161,3.513
			c-2.064,2.39-4.059,4.776-5.986,7.162c-1.929,2.39-3.789,4.821-5.581,7.3l0.805-2.064c1.162-3.027,2.325-6.055,3.488-9.082
			c1.161-3.028,2.369-6.056,3.623-9.083l3.623-9.083l1.878-4.541l1.88-4.404l0.535-2.063c0.445-1.834,0.263-3.645-0.55-5.431
			s-2.119-3.135-3.918-4.049c-2.071-1.003-4.138-1.113-6.203-0.331c-2.067,0.784-3.592,2.231-4.575,4.341l-0.806,1.651l-0.001-0.138
			l-0.134,0.551l-12.89,27.527c-0.168,0.379-0.272,0.753-0.345,1.124l-0.861,1.766l-1.612,3.166l-1.746,3.166l-1.747,3.166
			c-1.165,2.112-2.374,4.178-3.628,6.195c-1.256,2.021-2.51,4.04-3.764,6.059l-4.033,5.92c-0.719,1.012-1.412,1.976-2.084,2.893
			c-0.673,0.919-1.368,1.883-2.085,2.892l-4.438,5.372c-0.719,0.919-1.479,1.79-2.287,2.617c-0.808,0.826-1.615,1.607-2.423,2.342
			c-0.808,0.736-1.638,1.471-2.489,2.205c-0.854,0.737-1.684,1.379-2.491,1.931c-0.45,0.275-0.875,0.528-1.279,0.759
			c-0.404,0.229-0.785,0.436-1.145,0.621c-0.809,0.276-1.526,0.416-2.156,0.417l-0.675,0.001c0-0.092-0.044-0.185-0.135-0.274
			l-0.271-0.55l-0.271-0.962c-0.18-0.367-0.271-0.734-0.271-1.1c-0.089-0.457-0.157-0.938-0.205-1.443
			c-0.045-0.503-0.069-1.031-0.07-1.581c-0.002-1.008,0.042-2.062,0.129-3.163c0.088-1.1,0.221-2.2,0.397-3.301l0.668-3.302
			l0.804-2.889c0.182,0.184,0.405,0.273,0.675,0.273c0.63,0.273,1.305,0.502,2.023,0.684l1.888-0.004
			c1.078-0.093,2.11-0.369,3.1-0.831l2.289-1.242l2.02-1.517l1.615-1.517c0.538-0.551,1.03-1.123,1.479-1.722
			c0.448-0.596,0.896-1.17,1.346-1.722c1.701-2.293,3.18-4.727,4.435-7.296l0.403-0.964l0.402-0.963l0.806-1.79
			c0.625-1.283,1.117-2.477,1.476-3.578l0.806-1.927c0.087-0.55,0.312-1.146,0.671-1.788c0.445-1.467,0.803-2.797,1.07-3.99
			c0.178-0.641,0.335-1.307,0.468-1.995c0.134-0.688,0.288-1.396,0.468-2.132c0.268-1.466,0.399-3.026,0.396-4.676
			c0-0.458-0.001-0.916-0.002-1.375c-0.001-0.458-0.049-0.916-0.138-1.375l-0.272-1.649l-0.408-1.787l-0.948-2.198l-0.677-1.099
			c-0.091-0.183-0.202-0.389-0.338-0.618c-0.135-0.228-0.294-0.434-0.473-0.618c-0.632-0.731-1.486-1.509-2.566-2.332
			c-1.171-0.73-2.295-1.233-3.374-1.506c-0.721-0.181-1.26-0.272-1.618-0.271c-0.182-0.09-0.451-0.137-0.81-0.136l-1.482,0.003
			c-0.271,0-0.495,0.048-0.675,0.139c-0.181,0-0.383,0.024-0.606,0.069c-0.225,0.048-0.427,0.07-0.606,0.07
			c-1.617,0.463-2.964,1.016-4.041,1.658c-0.63,0.276-1.146,0.576-1.549,0.897c-0.404,0.322-0.831,0.667-1.279,1.033
			c-0.72,0.462-1.393,1.104-2.019,1.93c-0.629,0.644-1.19,1.264-1.682,1.859c-0.492,0.599-0.963,1.264-1.412,1.997l-1.21,1.79
			l-1.075,1.927c-0.716,1.286-1.343,2.525-1.88,3.717c-0.537,1.193-1.074,2.432-1.611,3.716c-1.685,4.087-3.038,8.343-4.064,12.764
			c-3.173,4.32-6.475,8.51-9.907,12.565c-1.796,2.113-3.589,4.156-5.382,6.13c-1.795,1.977-3.633,3.974-5.516,5.993l-0.809,0.826
			c0.894-2.385,1.744-4.7,2.549-6.949c0.805-2.247,1.609-4.562,2.414-6.949l9.787-28.208c3.037-9.356,6.255-18.714,9.653-28.071
			l2.414-6.88l0.714-1.779l70.053-8.126l0.539-0.001c2.427-0.463,4.333-1.704,5.724-3.725c1.389-2.018,1.855-4.267,1.402-6.74
			c-0.455-2.382-1.673-4.281-3.651-5.699c-1.98-1.416-4.14-1.938-6.475-1.568l-57.354,10.533c0.113-0.173,0.226-0.344,0.339-0.519
			c0.357-0.55,0.693-1.077,1.008-1.583c0.313-0.503,0.649-1.077,1.009-1.721l2.016-3.304l2.016-3.58l1.88-3.991l0.804-2.339
			c0.447-0.826,0.716-1.834,0.804-3.027l0.268-0.963l-0.002-1.1c0.088-0.275,0.134-0.733,0.132-1.376l-0.272-1.787
			c-0.092-0.364-0.183-0.731-0.272-1.099c-0.091-0.365-0.227-0.777-0.406-1.237c-0.183-0.457-0.386-0.893-0.609-1.305
			c-0.227-0.412-0.564-0.846-1.014-1.305c-0.723-0.823-1.532-1.51-2.432-2.058c-0.451-0.274-0.877-0.501-1.281-0.685
			c-0.405-0.183-0.789-0.364-1.147-0.548l-2.158-0.408l-1.618,0.003c-0.45,0.001-0.943,0.095-1.482,0.278
			c-0.451,0.001-0.855,0.094-1.213,0.277l-1.078,0.415l-0.808,0.414l-0.808,0.552l-1.077,0.827c-0.182,0.093-0.45,0.323-0.808,0.688
			c-0.27,0.186-0.494,0.414-0.673,0.689c-0.181,0.275-0.359,0.506-0.538,0.688l-1.749,2.203l-1.209,2.065
			c-0.719,1.102-1.39,2.388-2.015,3.854l-1.746,3.578l-3.087,7.294l-2.683,7.156l-2.413,7.293c-0.02,0.044-0.037,0.09-0.057,0.134
			l-28.784,5.287l0.67-2.064l0.939-2.339l0.803-2.89l0.401-1.651c0-0.183,0.021-0.365,0.066-0.55
			c0.044-0.183,0.067-0.413,0.066-0.688c-0.001-0.183,0.021-0.413,0.065-0.688c0.044-0.275,0.066-0.596,0.066-0.963
			c-0.001-0.458-0.049-0.87-0.138-1.237c-0.001-0.458-0.137-1.1-0.408-1.925c-0.091-0.182-0.159-0.412-0.204-0.687
			c-0.047-0.275-0.158-0.503-0.338-0.688c-0.361-0.731-0.768-1.326-1.217-1.785c-0.631-0.823-1.263-1.417-1.891-1.783
			c-0.722-0.456-1.576-0.867-2.564-1.232c-0.81-0.273-1.574-0.409-2.293-0.408l-1.213,0.003c-0.451,0.093-0.788,0.162-1.012,0.208
			c-0.225,0.048-0.471,0.117-0.74,0.208c-0.899,0.276-1.529,0.553-1.887,0.829l-1.077,0.689c-0.36,0.186-0.606,0.368-0.74,0.551
			c-0.135,0.186-0.292,0.368-0.472,0.552c-0.359,0.368-0.584,0.644-0.672,0.826c-0.45,0.461-0.719,0.826-0.807,1.102
			c-0.182,0.186-0.359,0.461-0.538,0.826c-0.181,0.275-0.315,0.529-0.403,0.757c-0.09,0.23-0.225,0.437-0.402,0.62l-1.209,2.478
			l-1.879,4.541l-1.609,4.541c-0.627,1.562-1.119,2.982-1.475,4.266c-0.359,0.826-0.671,1.744-0.938,2.752l-5.796,0.975
			c-1.078,0.187-1.977,0.738-2.693,1.655c-0.717,0.919-0.984,1.975-0.803,3.164c0.184,1.285,0.723,2.291,1.624,3.022
			c0.899,0.732,1.934,1.006,3.103,0.818l1.752-0.141c-0.447,1.561-0.893,3.164-1.338,4.815c-0.448,1.65-0.894,3.302-1.34,4.953
			c-0.463,1.757-0.907,3.508-1.349,5.258c-0.532,1.457-1.065,2.869-1.599,4.235c-0.537,1.377-1.027,2.8-1.475,4.266
			c-0.269,0.735-0.514,1.445-0.738,2.133c-0.221,0.688-0.422,1.4-0.602,2.133c-0.252,0.726-0.504,1.511-0.756,2.353
			c-0.218,0.285-0.414,0.601-0.584,0.95v0.138l-0.403,0.688l-1.209,2.478l-1.612,3.166l-3.492,6.332
			c-1.166,2.112-2.375,4.178-3.629,6.195c-1.256,2.021-2.51,4.04-3.764,6.058l-4.033,5.921c-0.719,1.012-1.412,1.976-2.084,2.892
			c-0.672,0.919-1.368,1.883-2.084,2.893l-4.439,5.371c-0.719,0.919-1.479,1.791-2.287,2.617c-0.807,0.827-1.615,1.608-2.422,2.343
			c-0.808,0.736-1.639,1.471-2.49,2.205c-0.854,0.736-1.683,1.379-2.49,1.931c-0.451,0.275-0.876,0.527-1.279,0.759
			c-0.404,0.229-0.785,0.436-1.146,0.621c-0.808,0.276-1.526,0.415-2.156,0.417l-0.675,0.001c0-0.093-0.044-0.185-0.135-0.274
			l-0.271-0.55l-0.271-0.962c-0.181-0.367-0.271-0.734-0.272-1.1c-0.089-0.458-0.157-0.938-0.205-1.443
			c-0.045-0.503-0.068-1.031-0.07-1.581c-0.002-1.008,0.043-2.062,0.129-3.163c0.089-1.101,0.221-2.2,0.398-3.301l0.668-3.302
			l0.803-2.89c0.182,0.185,0.405,0.274,0.675,0.274c0.63,0.273,1.306,0.502,2.024,0.683l1.887-0.003
			c1.078-0.093,2.11-0.37,3.1-0.832l2.29-1.242l2.019-1.517l1.615-1.516c0.539-0.551,1.031-1.123,1.48-1.722
			c0.447-0.596,0.895-1.171,1.345-1.722c1.702-2.294,3.181-4.727,4.435-7.297l0.403-0.963l0.402-0.964l0.806-1.789
			c0.625-1.284,1.118-2.478,1.477-3.578l0.805-1.927c0.088-0.55,0.312-1.146,0.671-1.789c0.446-1.466,0.804-2.797,1.071-3.989
			c0.178-0.641,0.334-1.308,0.468-1.995s0.288-1.397,0.468-2.133c0.267-1.465,0.398-3.025,0.396-4.676
			c-0.001-0.457-0.002-0.915-0.003-1.375c-0.001-0.457-0.049-0.915-0.138-1.375l-0.272-1.649l-0.408-1.786l-0.947-2.198
			l-0.677-1.099c-0.091-0.183-0.203-0.389-0.339-0.618c-0.135-0.228-0.293-0.434-0.473-0.618c-0.631-0.731-1.486-1.51-2.566-2.332
			c-1.17-0.73-2.295-1.233-3.373-1.506c-0.721-0.182-1.261-0.272-1.619-0.272c-0.182-0.09-0.451-0.136-0.809-0.136l-1.483,0.003
			c-0.27,0.001-0.495,0.049-0.674,0.14c-0.181,0-0.384,0.024-0.606,0.069c-0.226,0.048-0.428,0.069-0.607,0.07
			c-1.617,0.463-2.964,1.016-4.041,1.658c-0.629,0.276-1.145,0.576-1.549,0.896c-0.404,0.323-0.831,0.668-1.279,1.034
			c-0.719,0.461-1.393,1.103-2.018,1.929c-0.629,0.645-1.19,1.264-1.683,1.86c-0.491,0.598-0.962,1.263-1.411,1.996l-1.211,1.79
			l-1.074,1.928c-0.717,1.286-1.344,2.525-1.881,3.717c-0.537,1.193-1.074,2.432-1.61,3.716c-1.967,4.771-3.487,9.77-4.556,14.997
			c-0.623,2.477-1.137,4.977-1.535,7.497c-0.4,2.523-0.732,5.113-0.996,7.771l-0.397,3.851c0.001,0.735-0.019,1.399-0.063,1.994
			c-0.043,0.598-0.065,1.262-0.064,1.994c-0.086,1.285-0.105,2.612-0.059,3.987c0.049,1.375,0.163,2.75,0.345,4.125
			c0.092,0.734,0.185,1.467,0.274,2.199c0.092,0.732,0.228,1.465,0.408,2.199l0.679,2.337c0.183,0.457,0.362,0.846,0.542,1.167
			c0.182,0.32,0.361,0.709,0.541,1.168c0.271,0.457,0.541,0.869,0.812,1.236c0.271,0.364,0.587,0.776,0.946,1.235
			c0.811,0.823,1.711,1.555,2.701,2.194c0.99,0.456,2.07,0.773,3.237,0.956c0.091,0,0.157,0.021,0.202,0.068
			c0.047,0.045,0.113,0.068,0.202,0.068l1.214-0.002c0.63-0.001,1.125-0.05,1.482-0.141c0.451-0.001,0.877-0.049,1.281-0.14
			c0.404-0.094,0.829-0.232,1.279-0.416l2.156-0.829l2.02-1.104l1.751-1.24c2.154-1.473,4.173-3.219,6.058-5.238
			c0.986-0.919,1.883-1.838,2.69-2.755s1.614-1.881,2.421-2.893c0.808-1.01,1.615-1.997,2.422-2.962
			c0.807-0.964,1.568-1.949,2.286-2.961l4.304-5.921c0.716-1.009,1.411-2.042,2.084-3.099c0.672-1.054,1.365-2.086,2.083-3.098
			c1.433-2.019,2.801-4.062,4.101-6.127c0.104-0.164,0.209-0.33,0.312-0.495l-1.579,8.954c-0.442,2.936-0.886,5.914-1.331,8.94
			c-0.442,3.026-0.885,6.1-1.33,9.216c-0.176,1.558-0.331,3.095-0.463,4.607s-0.24,3.047-0.328,4.607
			c-0.087,0.825-0.132,1.626-0.131,2.406c0.002,0.777,0.004,1.581,0.005,2.406c0.001,0.458,0.002,0.87,0.003,1.237
			c0,0.365,0.047,0.778,0.137,1.237c0.001,0.458,0.025,0.915,0.07,1.375c0.047,0.458,0.115,0.915,0.205,1.375l0.272,1.512
			c0.182,0.183,0.294,0.412,0.339,0.688c0.047,0.274,0.158,0.595,0.338,0.961c0.362,0.732,0.812,1.374,1.353,1.923
			c0.271,0.274,0.675,0.594,1.216,0.96c0.721,0.364,1.26,0.548,1.618,0.547c0.182,0.09,0.451,0.137,0.81,0.136l0.674-0.001
			c0.451-0.001,0.765-0.049,0.943-0.14c0.721-0.187,1.304-0.37,1.752-0.554c0.99-0.369,1.887-0.829,2.694-1.381
			c1.435-1.103,2.692-2.252,3.769-3.444c0.627-0.645,1.188-1.24,1.682-1.791c0.492-0.552,1.009-1.149,1.547-1.791
			c0.986-1.287,1.904-2.548,2.757-3.787c0.851-1.239,1.725-2.502,2.622-3.786l4.838-7.711c0.717-1.286,1.455-2.592,2.218-3.923
			c0.76-1.329,1.546-2.638,2.353-3.924l2.148-3.992l2.15-3.992l8.463-15.968l4.029-8.121l4.164-7.983
			c0-0.183,0.043-0.275,0.135-0.275c0.312-0.706,0.412-1.399,0.307-2.083c0.075-0.107,0.15-0.217,0.227-0.324
			c0.807-1.146,1.657-2.317,2.555-3.512c-0.982,4.127-1.963,8.232-2.943,12.312c-0.981,4.082-1.918,8.186-2.807,12.312
			c-0.535,2.386-1.07,4.815-1.604,7.291c-0.535,2.477-1.023,4.907-1.47,7.291c-0.444,2.477-0.888,4.952-1.334,7.428
			c-0.444,2.477-0.888,4.952-1.334,7.429c-0.446,1.283-0.218,2.428,0.681,3.437c0.723,0.73,1.576,1.142,2.564,1.232
			c0.988,0.088,1.841-0.189,2.561-0.831l0.807-0.826l0.809-0.689l1.48-1.378l3.095-2.894c0.986-1.01,1.972-2.02,2.96-3.031
			c0.986-1.01,1.973-2.02,2.961-3.031c1.972-2.02,3.879-4.064,5.718-6.131c1.838-2.066,3.653-4.153,5.449-6.268
			c0.575-0.678,1.147-1.365,1.719-2.058c-0.083,0.727-0.163,1.456-0.236,2.192l-0.397,3.852c0.002,0.734-0.018,1.398-0.063,1.993
			c-0.043,0.598-0.064,1.262-0.063,1.994c-0.086,1.285-0.106,2.613-0.06,3.988c0.049,1.375,0.163,2.75,0.346,4.124
			c0.092,0.734,0.184,1.468,0.273,2.2c0.092,0.732,0.229,1.465,0.409,2.199l0.678,2.336c0.183,0.457,0.362,0.846,0.542,1.168
			c0.182,0.319,0.361,0.708,0.542,1.167c0.271,0.458,0.541,0.869,0.811,1.236c0.271,0.364,0.588,0.776,0.946,1.235
			c0.811,0.824,1.712,1.555,2.701,2.195c0.991,0.455,2.07,0.773,3.237,0.956c0.091-0.001,0.158,0.021,0.203,0.068
			c0.046,0.045,0.113,0.068,0.202,0.068l1.214-0.003c0.629-0.001,1.124-0.05,1.482-0.141c0.451-0.001,0.876-0.049,1.28-0.14
			c0.404-0.094,0.83-0.231,1.28-0.415l2.155-0.83l2.021-1.104l1.751-1.241c2.154-1.472,4.173-3.219,6.057-5.237
			c0.986-0.92,1.884-1.839,2.691-2.756c0.807-0.917,1.614-1.881,2.421-2.893c0.808-1.009,1.614-1.997,2.422-2.961
			c0.807-0.964,1.567-1.95,2.286-2.961l4.303-5.922c0.717-1.009,1.412-2.042,2.084-3.098c0.672-1.055,1.365-2.087,2.084-3.099
			c1.433-2.018,2.8-4.062,4.101-6.127c0.853-1.357,1.72-2.728,2.593-4.104c-0.058,0.244-0.117,0.487-0.175,0.73
			c-0.756,3.212-1.491,6.466-2.205,9.768c-0.446,1.651-0.803,3.302-1.069,4.952c-0.267,1.651-0.577,3.302-0.935,4.952
			c-0.267,1.65-0.51,3.302-0.731,4.952c-0.221,1.65-0.419,3.394-0.597,5.227v0.412c-0.177,0.916-0.018,1.74,0.478,2.475
			c0.496,0.731,1.148,1.28,1.958,1.646c0.991,0.456,2.002,0.454,3.033-0.006c1.034-0.462,1.773-1.196,2.221-2.204
			c2.775-4.864,5.958-9.638,9.545-14.32c1.793-2.294,3.632-4.521,5.516-6.681c1.883-2.156,3.854-4.291,5.92-6.405
			c1.164-1.192,2.331-2.388,3.498-3.582c1.165-1.193,2.376-2.343,3.634-3.445l0.004,2.2c0.001,0.46,0.002,0.94,0.003,1.443
			c0.001,0.505,0.091,1.031,0.273,1.581l0.542,1.786c0.359,0.642,0.766,1.283,1.218,1.923c0.72,0.733,1.439,1.282,2.16,1.646
			c0.54,0.184,0.944,0.273,1.214,0.273l1.079,0.272c0.27-0.001,0.561-0.022,0.876-0.07c0.314-0.046,0.607-0.07,0.877-0.071
			c3.954-0.098,7.928-1.734,11.923-4.905c3.992-3.171,7.873-7.325,11.638-12.468l2.556-3.442l1.21-1.79l1.345-1.791l0.269-0.412
			c0.448-0.552,0.717-1.147,0.806-1.79c0.355-1.283,0.197-2.476-0.479-3.574C629.054,110.564,628.086,109.879,626.828,109.606z
			 M526.025,133.736l1.208-3.166l1.477-3.165c0.447-1.009,0.917-1.996,1.41-2.959c0.491-0.964,1.007-1.949,1.545-2.96l0.402-0.826
			c0.001,0.186-0.022,0.299-0.066,0.345c-0.047,0.047-0.067,0.161-0.066,0.344l-0.398,3.438l-0.266,1.788l-0.135,0.412l0.001,0.413
			c0.001,0.185-0.022,0.322-0.066,0.412c-0.046,0.093-0.067,0.186-0.067,0.275c-0.179,1.011-0.4,2.019-0.668,3.026
			c-0.268,1.011-0.626,1.974-1.073,2.89c-0.537,1.012-1.03,1.838-1.478,2.479c-0.359,0.735-0.897,1.377-1.614,1.929
			c-0.182,0.185-0.293,0.322-0.337,0.413c-0.046,0.092-0.157,0.185-0.336,0.275c-0.001-0.275-0.048-0.55-0.137-0.824
			c-0.092-0.365-0.159-0.709-0.204-1.031c-0.047-0.32-0.069-0.709-0.069-1.169L526.025,133.736z M403.471,133.982l1.207-3.165
			l1.477-3.165c0.447-1.009,0.917-1.996,1.41-2.96c0.491-0.963,1.008-1.948,1.545-2.959l0.402-0.826
			c0.001,0.185-0.021,0.299-0.066,0.344c-0.046,0.048-0.066,0.161-0.066,0.344l-0.398,3.438l-0.266,1.788l-0.135,0.413l0.002,0.413
			c0,0.185-0.023,0.322-0.067,0.412c-0.046,0.093-0.067,0.185-0.066,0.275c-0.18,1.01-0.401,2.019-0.669,3.026
			c-0.268,1.011-0.625,1.974-1.072,2.89c-0.537,1.011-1.031,1.837-1.479,2.479c-0.359,0.735-0.896,1.377-1.614,1.928
			c-0.181,0.186-0.292,0.323-0.337,0.413c-0.045,0.093-0.157,0.186-0.336,0.276c0-0.275-0.047-0.55-0.137-0.825
			c-0.091-0.365-0.159-0.709-0.204-1.03c-0.047-0.32-0.068-0.709-0.069-1.169L403.471,133.982z M484.973,100.542
			c-0.537,1.101-1.074,2.226-1.611,3.372c-0.537,1.148-1.027,2.318-1.476,3.51c-0.269,0.643-0.537,1.262-0.806,1.857
			c-0.269,0.598-0.49,1.217-0.67,1.857l-0.672,1.789l-0.268,0.963l-0.134,0.413c-0.089,0.093-0.134,0.275-0.134,0.551
			c-0.3,0.792-0.345,1.52-0.148,2.185l-0.383,0.842l-1.745,4.128l-3.76,8.121c-1.255,2.662-2.552,5.322-3.895,7.983
			c-1.343,2.662-2.732,5.322-4.164,7.983l-2.015,3.854l-2.285,3.854l-4.434,7.709l-4.84,7.298l-2.555,3.58l-2.691,3.306
			c-0.449,0.551-0.92,1.078-1.412,1.584c-0.494,0.504-0.965,0.986-1.412,1.447l-1.48,1.378l-1.347,1.103l-0.674,0.276v-0.138
			c-0.001-0.274-0.022-0.573-0.069-0.894c-0.045-0.322-0.068-0.618-0.069-0.894c-0.001-0.917,0.044-1.604,0.131-2.062
			c-0.001-0.735,0.021-1.423,0.063-2.063c0.045-0.642,0.111-1.33,0.198-2.062c0.179-1.468,0.399-2.912,0.666-4.333
			c0.267-1.423,0.534-2.867,0.8-4.333c0.268-1.468,0.558-2.91,0.869-4.333c0.312-1.421,0.646-2.865,1.002-4.334
			c0.18-0.732,0.355-1.444,0.535-2.132c0.178-0.688,0.355-1.397,0.535-2.133l1.205-4.265l1.205-4.403l1.205-4.265
			c0.447-1.376,0.893-2.773,1.341-4.196c0.446-1.422,0.892-2.866,1.34-4.335l2.68-8.53l2.815-8.394l2.814-8.531l2.95-8.394
			c0.269-0.826,0.558-1.651,0.872-2.478c0.312-0.825,0.604-1.696,0.871-2.614l2.419-4.13l2.149-4.13l1.074-1.927
			c0.088-0.275,0.201-0.551,0.336-0.826s0.289-0.596,0.47-0.963l27.795-3.225c-2.054,3.53-4.123,7.155-6.209,10.881
			C489.54,91.457,487.21,95.955,484.973,100.542z M599.641,134.413c-0.091,0-0.182-0.045-0.271-0.138l0.404-0.001l0.001,0.138
			L599.641,134.413z M386.456,119.304c-0.273-1.925-0.705-3.849-1.293-5.772c-0.589-1.924-1.379-3.801-2.369-5.633
			c-1.986-3.662-4.463-6.819-7.435-9.474c-1.62-1.279-3.196-2.469-4.726-3.565c-0.811-0.456-1.643-0.912-2.497-1.37
			c-0.856-0.456-1.733-0.866-2.632-1.232c-3.329-1.458-6.881-2.461-10.657-3.004c-2.608-0.27-5.124-0.401-7.551-0.396
			c1.435-1.011,2.849-2.068,4.241-3.172c1.39-1.103,2.848-2.251,4.375-3.446c1.165-0.918,2.31-1.813,3.433-2.688
			c1.121-0.872,2.266-1.813,3.433-2.825c1.076-1.01,2.174-1.998,3.297-2.963c1.121-0.965,2.222-1.951,3.299-2.964
			c2.241-2.112,4.395-4.247,6.459-6.406c2.062-2.157,4.08-4.522,6.053-7.095c1.883-2.479,3.676-5.185,5.378-8.123
			c1.612-2.937,2.954-6.146,4.026-9.634c0.535-1.741,0.937-3.667,1.202-5.777c-0.001-0.183,0.021-0.413,0.065-0.688
			c0.045-0.274,0.066-0.502,0.066-0.688l-0.002-1.375c0-0.09,0.021-0.159,0.066-0.206c0.045-0.045,0.067-0.114,0.067-0.206
			c-0.003-1.283-0.231-2.841-0.683-4.674c-0.184-0.915-0.455-1.694-0.814-2.336c-0.271-0.915-0.678-1.694-1.218-2.336
			c-0.812-1.463-1.849-2.699-3.108-3.706c-1.171-1.005-2.295-1.828-3.375-2.469c-0.54-0.364-1.08-0.661-1.62-0.891
			c-0.54-0.227-1.079-0.432-1.619-0.615c-0.991-0.456-1.956-0.798-2.9-1.025c-0.944-0.226-1.911-0.43-2.9-0.613
			c-0.899-0.181-1.776-0.316-2.63-0.407c-0.855-0.088-1.732-0.134-2.629-0.132c-3.327-0.269-6.52-0.262-9.573,0.02
			c-3.057,0.099-6.066,0.38-9.032,0.843c-1.528,0.188-3.012,0.397-4.447,0.628c-1.439,0.232-2.877,0.487-4.313,0.765l-4.447,0.834
			l-4.179,0.972c-0.72,0.186-1.438,0.347-2.156,0.485c-0.72,0.139-1.438,0.302-2.156,0.485l-4.178,0.971l-10.241,2.771l2.414-6.743
			c-0.001-0.183,0.021-0.32,0.066-0.412c0.044-0.091,0.067-0.229,0.067-0.413c0.713-2.566,0.395-5.064-0.959-7.492
			c-1.354-2.425-3.334-4.002-5.941-4.731c-2.609-0.728-5.08-0.402-7.414,0.977c-2.336,1.38-3.859,3.4-4.572,6.06l-5.221,19.399
			l-1.213,0.415c-5.389,1.846-10.779,3.781-16.168,5.808c-2.605,1.015-5.254,2.028-7.949,3.041
			c-2.694,1.016-5.345,2.028-7.949,3.041c-2.605,1.105-5.232,2.189-7.881,3.248c-2.65,1.06-5.277,2.188-7.881,3.385l-7.812,3.453
			c-0.63,0.368-1.259,0.689-1.887,0.966c-0.629,0.276-1.303,0.553-2.021,0.829l-3.771,1.933c-0.99,0.462-1.73,1.196-2.221,2.205
			c-0.494,1.011-0.604,2.111-0.331,3.301c0.36,1.284,1.083,2.245,2.163,2.883c1.08,0.641,2.247,0.776,3.506,0.406l8.221-2.217
			l8.085-2.354l16.306-4.433l16.17-4.57c1.258-0.277,2.537-0.576,3.842-0.901c1.301-0.323,2.581-0.669,3.84-1.039l-35.602,135.516
			c-0.447,1.834,0.185,3.07,1.895,3.709c0.719,0.363,1.461,0.341,2.225-0.073c0.762-0.414,1.279-0.989,1.547-1.722l49.206-142.557
			l5.526-1.248c5.39-1.387,10.78-2.635,16.172-3.746l4.043-0.833l3.908-0.833l4.043-0.695c0.719-0.184,1.393-0.323,2.021-0.417
			c0.629-0.091,1.303-0.185,2.022-0.278c1.349-0.186,2.696-0.371,4.044-0.559c1.348-0.186,2.649-0.37,3.908-0.558
			c1.349-0.186,2.674-0.325,3.977-0.421c1.303-0.093,2.583-0.188,3.843-0.282c0.628-0.002,1.234-0.024,1.819-0.073
			c0.584-0.046,1.191-0.07,1.82-0.072c0.628-0.001,1.234,0.021,1.82,0.065c0.584,0.046,1.191,0.066,1.82,0.065l3.102,0.406
			c0.449,0.091,0.877,0.183,1.282,0.272c0.404,0.091,0.741,0.183,1.012,0.272l-0.265,2.476c-0.447,2.201-1.117,4.312-2.011,6.329
			c-0.448,1.102-0.939,2.227-1.477,3.372c-0.537,1.148-1.12,2.271-1.746,3.373c-0.718,1.102-1.411,2.202-2.083,3.304
			s-1.367,2.203-2.084,3.305c-0.719,1.102-1.479,2.203-2.285,3.305s-1.614,2.203-2.421,3.305l-5.246,6.336l-5.651,6.199
			c-3.767,4.043-7.805,7.901-12.111,11.575l-3.096,2.894l-3.23,2.619l-4.712,3.723c-2.875,1.381-5.657,2.946-8.351,4.692
			c-0.719,0.461-1.369,0.92-1.952,1.379c-0.585,0.461-1.235,0.92-1.952,1.379l-0.942,0.827l-0.942,0.689l-1.75,1.653
			c-1.168,0.552-1.931,1.426-2.287,2.617c-0.357,1.193-0.265,2.386,0.277,3.574c0.541,1.191,1.396,1.991,2.566,2.401
			c1.168,0.41,2.337,0.339,3.505-0.213l0.673-0.414l2.021-0.555l2.021-0.691l4.043-1.245l7.814-2.216
			c2.605-0.556,5.189-0.995,7.751-1.322c2.562-0.325,5.099-0.491,7.616-0.497c1.258-0.002,2.472,0.064,3.641,0.199
			c1.168,0.136,2.293,0.294,3.372,0.475c1.167,0.183,2.293,0.432,3.372,0.749c1.079,0.32,2.112,0.707,3.104,1.163
			c0.449,0.184,0.898,0.39,1.35,0.616c0.449,0.229,0.898,0.479,1.35,0.753c0.449,0.274,0.854,0.549,1.215,0.823
			c0.359,0.274,0.764,0.596,1.215,0.96c0.721,0.733,1.373,1.441,1.96,2.127c0.585,0.687,1.103,1.489,1.555,2.403
			c0.991,1.648,1.669,3.481,2.033,5.496c0.181,1.01,0.295,2.062,0.343,3.162c0.047,1.101-0.019,2.2-0.195,3.301
			c-0.266,2.11-0.756,4.449-1.47,7.016c-0.448,1.193-0.896,2.363-1.341,3.51c-0.449,1.147-0.986,2.317-1.611,3.509
			c-2.239,4.497-5.197,8.903-8.873,13.219c-3.679,4.317-7.581,8.311-11.707,11.987c-4.219,3.674-8.706,7.167-13.463,10.478
			c-4.578,3.217-9.472,6.297-14.678,9.242c-5.03,2.76-10.148,5.383-15.355,7.869c-2.605,1.287-5.254,2.507-7.947,3.659
			c-2.695,1.151-5.389,2.28-8.084,3.386c-5.389,2.211-10.824,4.261-16.303,6.151c-5.479,1.889-11.049,3.666-16.707,5.328
			c-5.66,1.752-11.299,3.344-16.912,4.777c-5.616,1.432-11.299,2.795-17.048,4.091c-1.26,0.186-2.224,0.83-2.896,1.932
			s-0.871,2.292-0.6,3.576c0.272,1.282,0.948,2.267,2.028,2.952s2.247,0.89,3.507,0.612c5.839-1.297,11.635-2.637,17.385-4.023
			c5.748-1.387,11.499-2.865,17.25-4.435c5.748-1.571,11.453-3.255,17.113-5.054c5.658-1.799,11.318-3.759,16.977-5.878
			c2.873-1.016,5.68-2.074,8.42-3.18c2.739-1.105,5.501-2.259,8.285-3.454c2.783-1.291,5.545-2.556,8.285-3.799
			c2.738-1.243,5.455-2.555,8.149-3.935c2.694-1.381,5.388-2.809,8.081-4.279c2.694-1.473,5.342-2.991,7.946-4.554
			c2.603-1.565,5.161-3.221,7.676-4.966c2.513-1.747,5.026-3.54,7.54-5.378c2.512-1.93,4.935-3.929,7.27-5.996
			c2.332-2.067,4.619-4.296,6.863-6.683c2.152-2.114,4.305-4.547,6.457-7.301c0.986-1.285,1.95-2.617,2.891-3.994
			c0.941-1.377,1.815-2.799,2.621-4.268c0.895-1.467,1.701-2.981,2.418-4.543c0.716-1.559,1.432-3.165,2.148-4.816
			c0.625-1.652,1.16-3.348,1.607-5.092c0.446-1.741,0.803-3.529,1.068-5.364C387.01,127.188,387.002,123.338,386.456,119.304z
			 M373.61,30.913l0.001,0.274C373.429,30.823,373.428,30.73,373.61,30.913z M218.508,143.293c1.433-2.019,2.8-4.062,4.1-6.127
			c1.299-2.065,2.621-4.152,3.966-6.265c0.356-0.459,0.672-0.964,0.94-1.515c0.27-0.551,0.582-1.102,0.941-1.652l1.881-3.028
			l2.017-3.167l1.882-3.304l0.268-0.413c0.537-1.284,0.603-2.566,0.195-3.851c-0.406-1.282-1.24-2.198-2.5-2.745
			c-1.261-0.638-2.519-0.751-3.775-0.336c-1.259,0.415-2.201,1.266-2.826,2.549v0.138l-0.403,0.688l-1.208,2.478l-1.612,3.166
			l-1.747,3.166l-1.746,3.166c-1.165,2.112-2.375,4.178-3.629,6.195c-1.256,2.021-2.51,4.04-3.764,6.058l-4.033,5.921
			c-0.719,1.012-1.411,1.976-2.084,2.892c-0.672,0.919-1.367,1.883-2.084,2.893l-4.439,5.371c-0.719,0.919-1.479,1.791-2.287,2.617
			c-0.807,0.827-1.614,1.608-2.422,2.343c-0.808,0.736-1.639,1.471-2.49,2.205c-0.854,0.736-1.683,1.379-2.49,1.931
			c-0.45,0.275-0.875,0.527-1.279,0.759c-0.404,0.229-0.785,0.436-1.145,0.621c-0.809,0.276-1.527,0.415-2.156,0.417l-0.675,0.001
			c0-0.093-0.044-0.185-0.136-0.274l-0.271-0.55l-0.271-0.962c-0.18-0.367-0.271-0.734-0.271-1.1
			c-0.089-0.457-0.157-0.938-0.205-1.443c-0.046-0.503-0.069-1.031-0.071-1.581c-0.002-1.008,0.043-2.062,0.129-3.163
			c0.089-1.101,0.222-2.2,0.398-3.301l0.668-3.302l0.803-2.89c0.182,0.185,0.406,0.274,0.676,0.274
			c0.63,0.273,1.305,0.502,2.023,0.683l1.887-0.003c1.079-0.093,2.111-0.37,3.1-0.832l2.29-1.242l2.02-1.517l1.615-1.516
			c0.538-0.551,1.03-1.123,1.479-1.722c0.447-0.596,0.896-1.171,1.346-1.722c1.701-2.294,3.18-4.727,4.435-7.297l0.402-0.963
			l0.403-0.964l0.805-1.789c0.625-1.284,1.119-2.478,1.477-3.578l0.805-1.927c0.088-0.55,0.312-1.146,0.672-1.789
			c0.445-1.466,0.803-2.797,1.07-3.989c0.178-0.641,0.334-1.308,0.468-1.995s0.288-1.397,0.468-2.133
			c0.268-1.465,0.398-3.025,0.396-4.676c-0.001-0.457-0.001-0.915-0.003-1.375c0-0.457-0.048-0.915-0.137-1.375l-0.273-1.649
			l-0.408-1.786l-0.947-2.198l-0.677-1.099c-0.091-0.183-0.202-0.389-0.339-0.618c-0.135-0.228-0.293-0.434-0.473-0.618
			c-0.631-0.731-1.486-1.51-2.566-2.332c-1.17-0.73-2.294-1.233-3.373-1.506c-0.721-0.182-1.26-0.272-1.619-0.272
			c-0.181-0.09-0.451-0.136-0.809-0.136l-1.483,0.003c-0.27,0.001-0.495,0.049-0.674,0.14c-0.181,0-0.384,0.024-0.606,0.069
			c-0.225,0.048-0.428,0.069-0.606,0.07c-1.617,0.463-2.964,1.016-4.042,1.658c-0.629,0.276-1.145,0.576-1.549,0.896
			c-0.403,0.323-0.83,0.668-1.278,1.034c-0.72,0.461-1.393,1.103-2.019,1.93c-0.629,0.644-1.19,1.263-1.682,1.859
			c-0.492,0.598-0.963,1.263-1.412,1.996l-1.21,1.79l-1.075,1.928c-0.716,1.286-1.344,2.525-1.881,3.717
			c-0.537,1.193-1.073,2.432-1.61,3.716c-1.967,4.771-3.486,9.77-4.556,14.997c-0.622,2.477-1.136,4.977-1.535,7.497
			c-0.4,2.523-0.732,5.113-0.996,7.771l-0.397,3.851c0.001,0.735-0.019,1.399-0.063,1.994c-0.043,0.598-0.064,1.262-0.063,1.994
			c-0.086,1.285-0.106,2.612-0.06,3.987c0.049,1.375,0.163,2.75,0.345,4.125c0.093,0.734,0.185,1.467,0.274,2.199
			c0.092,0.732,0.229,1.465,0.408,2.199l0.679,2.337c0.183,0.457,0.362,0.846,0.542,1.167c0.182,0.32,0.361,0.709,0.541,1.168
			c0.271,0.457,0.541,0.869,0.812,1.236c0.271,0.364,0.587,0.776,0.946,1.235c0.811,0.823,1.711,1.555,2.701,2.194
			c0.99,0.456,2.07,0.773,3.237,0.956c0.091,0,0.158,0.021,0.202,0.068c0.047,0.045,0.114,0.069,0.203,0.068l1.213-0.002
			c0.63-0.001,1.125-0.05,1.482-0.141c0.451-0.001,0.877-0.049,1.281-0.14c0.404-0.094,0.83-0.232,1.28-0.416l2.155-0.829
			l2.021-1.104l1.751-1.241c2.154-1.472,4.173-3.219,6.057-5.238c0.986-0.919,1.884-1.838,2.691-2.755
			c0.807-0.917,1.613-1.881,2.421-2.893c0.808-1.01,1.614-1.997,2.421-2.962c0.808-0.964,1.568-1.949,2.287-2.961l4.303-5.921
			c0.717-1.009,1.412-2.042,2.084-3.099C217.096,145.337,217.79,144.305,218.508,143.293z M189.098,134.414l1.207-3.165l1.477-3.165
			c0.447-1.009,0.918-1.996,1.41-2.96c0.492-0.963,1.008-1.948,1.545-2.959l0.403-0.826c0,0.185-0.022,0.299-0.067,0.344
			c-0.046,0.048-0.066,0.161-0.066,0.344l-0.397,3.438l-0.267,1.789l-0.134,0.412l0.001,0.413c0,0.185-0.023,0.322-0.066,0.412
			c-0.047,0.093-0.067,0.185-0.067,0.275c-0.179,1.01-0.4,2.019-0.668,3.026c-0.269,1.011-0.626,1.974-1.073,2.89
			c-0.537,1.011-1.031,1.837-1.479,2.479c-0.358,0.735-0.896,1.377-1.613,1.928c-0.182,0.186-0.293,0.323-0.337,0.413
			c-0.046,0.093-0.157,0.186-0.337,0.276c0-0.275-0.047-0.55-0.137-0.825c-0.091-0.365-0.158-0.709-0.203-1.03
			c-0.047-0.32-0.069-0.709-0.07-1.169L189.098,134.414z"/>
	</g>
</g>
</svg>
