<?xml version="1.0" encoding="utf-8"?>
<!-- Generator: Adobe Illustrator 16.0.0, SVG Export Plug-In . SVG Version: 6.00 Build 0)  -->
<!DOCTYPE svg PUBLIC "-//W3C//DTD SVG 1.1//EN" "http://www.w3.org/Graphics/SVG/1.1/DTD/svg11.dtd">
<svg version="1.1" id="Layer_1" xmlns="http://www.w3.org/2000/svg" xmlns:xlink="http://www.w3.org/1999/xlink" x="0px" y="0px"
	 width="9px" height="9px" viewBox="0 0 9 9" enable-background="new 0 0 9 9" xml:space="preserve">
<g id="_x32_Vtyzn.tif">
	<g>
		<rect y="4.007" fill="#878787" width="0.969" height="0.985"/>
		<rect x="2.008" y="4.007" fill="#878787" width="0.969" height="0.985"/>
		<rect x="4.016" y="4.007" fill="#878787" width="0.969" height="0.985"/>
		<rect x="6.023" y="4.007" fill="#878787" width="0.969" height="0.985"/>
		<rect x="8.031" y="4.007" fill="#878787" width="0.969" height="0.985"/>
	</g>
	<g>
		<rect y="6.021" fill="#878787" width="0.969" height="0.986"/>
		<rect x="2.008" y="6.021" fill="#878787" width="0.969" height="0.986"/>
		<rect x="4.016" y="6.021" fill="#878787" width="0.969" height="0.986"/>
		<rect x="6.023" y="6.021" fill="#878787" width="0.969" height="0.986"/>
		<rect x="8.031" y="6.021" fill="#878787" width="0.969" height="0.986"/>
	</g>
	<g>
		<rect y="7.992" fill="#878787" width="0.969" height="0.986"/>
		<rect x="2.008" y="7.992" fill="#878787" width="0.969" height="0.986"/>
		<rect x="4.016" y="7.992" fill="#878787" width="0.969" height="0.986"/>
		<rect x="6.023" y="7.992" fill="#878787" width="0.969" height="0.986"/>
		<rect x="8.031" y="7.992" fill="#878787" width="0.969" height="0.986"/>
	</g>
	<g>
		<rect y="1.992" fill="#878787" width="0.969" height="0.986"/>
		<rect x="2.008" y="1.992" fill="#878787" width="0.969" height="0.986"/>
		<rect x="4.016" y="1.992" fill="#878787" width="0.969" height="0.986"/>
		<rect x="6.023" y="1.992" fill="#878787" width="0.969" height="0.986"/>
		<rect x="8.031" y="1.992" fill="#878787" width="0.969" height="0.986"/>
	</g>
	<g>
		<rect fill="#878787" width="0.969" height="0.986"/>
		<rect x="2.008" fill="#878787" width="0.969" height="0.986"/>
		<rect x="4.016" fill="#878787" width="0.969" height="0.986"/>
		<rect x="6.023" fill="#878787" width="0.969" height="0.986"/>
		<rect x="8.031" fill="#878787" width="0.969" height="0.986"/>
	</g>
</g>
</svg>
