<?xml version="1.0" encoding="utf-8"?>
<!-- Generator: Adobe Illustrator 16.0.0, SVG Export Plug-In . SVG Version: 6.00 Build 0)  -->
<!DOCTYPE svg PUBLIC "-//W3C//DTD SVG 1.1//EN" "http://www.w3.org/Graphics/SVG/1.1/DTD/svg11.dtd">
<svg version="1.1" id="Layer_1" xmlns="http://www.w3.org/2000/svg" xmlns:xlink="http://www.w3.org/1999/xlink" x="0px" y="0px"
	 width="800px" height="800px" viewBox="0 0 800 800" fill="#fff" enable-background="new 0 0 800 800" xml:space="preserve">
<path d="M400.339,787.337c-66.716,0-132.7-17.313-190.818-50.069C149.624,703.51,99.637,654.056,64.964,594.253
	c-26.218-45.221-42.798-94.237-49.278-145.688c-6.257-49.684-2.876-99.517,10.051-148.115
	c12.926-48.599,34.75-93.526,64.864-133.535c31.187-41.433,69.928-75.735,115.149-101.954
	c59.012-34.214,126.065-52.298,193.91-52.298c66.716,0,132.701,17.314,190.82,50.07c59.898,33.759,109.886,83.214,144.56,143.018
	c26.218,45.22,42.798,94.236,49.277,145.688c6.257,49.683,2.875,99.516-10.052,148.113c-12.927,48.599-34.751,93.525-64.864,133.533
	c-31.187,41.433-69.928,75.734-115.147,101.952C535.239,769.252,468.186,787.337,400.339,787.337z M399.66,61.663
	c-59.224,0-117.779,15.799-169.333,45.689C152.158,152.673,96.316,225.723,73.09,313.045
	c-23.227,87.321-11.058,178.461,34.264,256.63c30.291,52.245,73.939,95.438,126.225,124.906
	c50.79,28.625,108.455,43.756,166.759,43.756c59.226,0,117.781-15.8,169.336-45.691c78.169-45.32,134.01-118.369,157.236-205.69
	c23.227-87.321,11.059-178.46-34.263-256.627c-30.291-52.246-73.94-95.438-126.228-124.908
	C515.63,76.793,457.965,61.663,399.66,61.663z"/>
<path d="M175.286,568.885c-3.325,0-6.671-0.435-9.971-1.312c-9.949-2.646-18.272-9.009-23.437-17.916
	c-10.66-18.387-4.375-42.018,14.012-52.678l0,0c14.922-8.651,33.3-6.141,45.394,4.943l398.654-231.136l-21.742-37.499l19.898-11.536
	l55.02,94.896l-19.898,11.536l-21.741-37.499l-398.64,231.128c1.368,6.008,1.267,12.296-0.362,18.42
	c-2.646,9.95-9.008,18.272-17.914,23.437C188.604,567.12,181.989,568.885,175.286,568.885z M167.425,516.876
	c-7.415,4.3-9.949,13.829-5.65,21.243c2.083,3.593,5.44,6.159,9.452,7.227c4.013,1.067,8.2,0.508,11.792-1.575
	c3.592-2.082,6.157-5.438,7.224-9.45c1.067-4.012,0.508-8.199-1.575-11.791C184.37,515.113,174.84,512.578,167.425,516.876
	L167.425,516.876z"/>
<path d="M609.084,558.801c-6.655,0.001-13.224-1.739-19.148-5.146l0,0c-8.926-5.131-15.318-13.431-18.001-23.371
	c-1.651-6.117-1.775-12.406-0.43-18.419L172.023,282.197l-21.604,37.579l-19.939-11.464l54.671-95.096l19.939,11.463l-21.604,37.579
	l399.482,229.668c4.519-4.188,10.016-7.245,16.134-8.896c9.938-2.685,20.329-1.337,29.255,3.796
	c8.925,5.13,15.318,13.431,18.001,23.371c2.683,9.939,1.334,20.329-3.798,29.255s-13.432,15.318-23.371,18.002
	C615.848,558.354,612.454,558.801,609.084,558.801z M609.173,504.69c-1.359,0-2.728,0.18-4.076,0.544
	c-4.008,1.082-7.355,3.66-9.425,7.26c-2.07,3.6-2.614,7.789-1.532,11.798c1.082,4.008,3.659,7.354,7.259,9.424h0.001
	c3.599,2.069,7.789,2.613,11.797,1.532c4.008-1.082,7.355-3.66,9.425-7.261c2.069-3.6,2.613-7.79,1.532-11.799
	c-1.082-4.008-3.66-7.354-7.259-9.423C614.505,505.392,611.856,504.69,609.173,504.69z"/>
<path d="M345.632,660.878l-0.042-23l43.345-0.079l-0.843-460.796c-5.887-1.819-11.282-5.051-15.771-9.523
	c-7.293-7.267-11.32-16.938-11.339-27.234c-0.019-10.295,3.973-19.982,11.239-27.275c7.267-7.293,16.938-11.32,27.234-11.339
	c0.024,0,0.049,0,0.073,0c10.269,0,19.927,3.99,27.203,11.239c7.293,7.267,11.319,16.939,11.338,27.235
	c0.03,17.249-11.332,31.908-26.978,36.84l0.843,460.812l43.347-0.079l0.043,23L345.632,660.878z M399.527,124.63
	c-0.01,0-0.02,0-0.03,0c-4.152,0.007-8.052,1.631-10.982,4.572c-2.931,2.942-4.541,6.848-4.533,11
	c0.007,4.152,1.631,8.052,4.572,10.982c2.934,2.923,6.829,4.532,10.968,4.532c0.01,0,0.02,0,0.03,0
	c8.571-0.016,15.533-7.001,15.517-15.572c-0.007-4.152-1.631-8.052-4.572-10.983C407.563,126.239,403.668,124.63,399.527,124.63z"/>
</svg>
