<?xml version="1.0" encoding="utf-8"?>
<!-- Generator: Adobe Illustrator 16.0.0, SVG Export Plug-In . SVG Version: 6.00 Build 0)  -->
<!DOCTYPE svg PUBLIC "-//W3C//DTD SVG 1.1//EN" "http://www.w3.org/Graphics/SVG/1.1/DTD/svg11.dtd">
<svg version="1.1" id="Capa_1" xmlns="http://www.w3.org/2000/svg" xmlns:xlink="http://www.w3.org/1999/xlink" x="0px" y="0px"
	 width="518.516px" height="370.146px" viewBox="0 74.185 518.516 370.146" enable-background="new 0 74.185 518.516 370.146"
	 xml:space="preserve">
<g>
	<g>
		<path fill="#FFFFFF" d="M257.269,78.412L91.494,196.757H26.775C12.01,196.757,0,208.844,0,223.531v71.451
			c0,14.766,12.087,26.774,26.775,26.774h64.719l165.775,118.346c12.086,8.645,21.727,3.596,21.727-11.169V89.581
			C279.072,74.816,269.355,69.768,257.269,78.412z"/>
		<path fill="#FFFFFF" d="M452.115,260.329l62.5-62.501c5.2-5.202,5.2-13.847,0-19.049l-12.623-12.623
			c-5.201-5.201-13.847-5.201-19.049,0l-62.5,62.5l-62.041-62.042c-5.201-5.201-13.847-5.201-19.05,0l-12.623,12.623
			c-5.2,5.202-5.2,13.848,0,19.049l62.043,62.042l-62.043,62.042c-5.2,5.201-5.2,13.847,0,19.049l12.623,12.622
			c5.203,5.202,13.849,5.202,19.05,0L420.443,292l62.041,62.041c5.202,5.202,13.848,5.202,19.049,0l12.623-12.622
			c5.2-5.202,5.2-13.848,0-19.049L452.115,260.329z"/>
	</g>
</g>
</svg>
